<mxfile host="app.diagrams.net" agent="Mozilla/5.0 (Windows NT 10.0; Win64; x64) AppleWebKit/537.36 (KHTML, like Gecko) Chrome/128.0.0.0 Safari/537.36" version="24.7.8">
  <diagram name="Page-1" id="JwDh1PhXiOaobB8C67Ic">
    <mxGraphModel dx="1366" dy="703" grid="1" gridSize="10" guides="1" tooltips="1" connect="1" arrows="1" fold="1" page="1" pageScale="1" pageWidth="827" pageHeight="1169" math="0" shadow="0">
      <root>
        <mxCell id="0" />
        <mxCell id="1" parent="0" />
        <mxCell id="v0zKnN7ERNtWTIlFHzvu-9" value="" style="rounded=0;whiteSpace=wrap;html=1;" vertex="1" parent="1">
          <mxGeometry x="240" y="40" width="346" height="1040" as="geometry" />
        </mxCell>
        <mxCell id="v0zKnN7ERNtWTIlFHzvu-10" value="Register/Login" style="ellipse;whiteSpace=wrap;html=1;" vertex="1" parent="1">
          <mxGeometry x="354" y="130" width="120" height="80" as="geometry" />
        </mxCell>
        <mxCell id="v0zKnN7ERNtWTIlFHzvu-11" value="Browse Products" style="ellipse;whiteSpace=wrap;html=1;" vertex="1" parent="1">
          <mxGeometry x="354" y="250" width="120" height="80" as="geometry" />
        </mxCell>
        <mxCell id="v0zKnN7ERNtWTIlFHzvu-12" value="Manage Cart" style="ellipse;whiteSpace=wrap;html=1;" vertex="1" parent="1">
          <mxGeometry x="354" y="370" width="120" height="80" as="geometry" />
        </mxCell>
        <mxCell id="v0zKnN7ERNtWTIlFHzvu-13" value="Place Order" style="ellipse;whiteSpace=wrap;html=1;" vertex="1" parent="1">
          <mxGeometry x="354" y="490" width="120" height="80" as="geometry" />
        </mxCell>
        <mxCell id="v0zKnN7ERNtWTIlFHzvu-14" value="Payment Process" style="ellipse;whiteSpace=wrap;html=1;" vertex="1" parent="1">
          <mxGeometry x="354" y="610" width="120" height="80" as="geometry" />
        </mxCell>
        <mxCell id="v0zKnN7ERNtWTIlFHzvu-16" value="Manage Inventory" style="ellipse;whiteSpace=wrap;html=1;" vertex="1" parent="1">
          <mxGeometry x="354" y="840" width="120" height="80" as="geometry" />
        </mxCell>
        <mxCell id="v0zKnN7ERNtWTIlFHzvu-17" value="Manage Orders" style="ellipse;whiteSpace=wrap;html=1;" vertex="1" parent="1">
          <mxGeometry x="354" y="730" width="120" height="80" as="geometry" />
        </mxCell>
        <mxCell id="v0zKnN7ERNtWTIlFHzvu-18" value="Generate Reports" style="ellipse;whiteSpace=wrap;html=1;" vertex="1" parent="1">
          <mxGeometry x="354" y="960" width="120" height="80" as="geometry" />
        </mxCell>
        <mxCell id="v0zKnN7ERNtWTIlFHzvu-25" style="rounded=0;orthogonalLoop=1;jettySize=auto;html=1;exitX=0.5;exitY=0.5;exitDx=0;exitDy=0;exitPerimeter=0;entryX=0;entryY=0.5;entryDx=0;entryDy=0;strokeColor=default;" edge="1" parent="1" source="v0zKnN7ERNtWTIlFHzvu-20" target="v0zKnN7ERNtWTIlFHzvu-10">
          <mxGeometry relative="1" as="geometry" />
        </mxCell>
        <mxCell id="v0zKnN7ERNtWTIlFHzvu-26" style="rounded=0;orthogonalLoop=1;jettySize=auto;html=1;exitX=0.5;exitY=0.5;exitDx=0;exitDy=0;exitPerimeter=0;" edge="1" parent="1" source="v0zKnN7ERNtWTIlFHzvu-20" target="v0zKnN7ERNtWTIlFHzvu-11">
          <mxGeometry relative="1" as="geometry" />
        </mxCell>
        <mxCell id="v0zKnN7ERNtWTIlFHzvu-27" style="rounded=0;orthogonalLoop=1;jettySize=auto;html=1;exitX=0.5;exitY=0.5;exitDx=0;exitDy=0;exitPerimeter=0;entryX=0;entryY=0.5;entryDx=0;entryDy=0;" edge="1" parent="1" source="v0zKnN7ERNtWTIlFHzvu-20" target="v0zKnN7ERNtWTIlFHzvu-12">
          <mxGeometry relative="1" as="geometry" />
        </mxCell>
        <mxCell id="v0zKnN7ERNtWTIlFHzvu-28" style="rounded=0;orthogonalLoop=1;jettySize=auto;html=1;exitX=0.5;exitY=0.5;exitDx=0;exitDy=0;exitPerimeter=0;entryX=0;entryY=0.5;entryDx=0;entryDy=0;" edge="1" parent="1" source="v0zKnN7ERNtWTIlFHzvu-20" target="v0zKnN7ERNtWTIlFHzvu-13">
          <mxGeometry relative="1" as="geometry" />
        </mxCell>
        <mxCell id="v0zKnN7ERNtWTIlFHzvu-20" value="Customer" style="shape=umlActor;verticalLabelPosition=bottom;verticalAlign=top;html=1;outlineConnect=0;" vertex="1" parent="1">
          <mxGeometry x="100" y="320" width="30" height="60" as="geometry" />
        </mxCell>
        <mxCell id="v0zKnN7ERNtWTIlFHzvu-30" style="rounded=0;orthogonalLoop=1;jettySize=auto;html=1;exitX=0.5;exitY=0.5;exitDx=0;exitDy=0;exitPerimeter=0;entryX=1;entryY=0.5;entryDx=0;entryDy=0;" edge="1" parent="1" source="v0zKnN7ERNtWTIlFHzvu-21" target="v0zKnN7ERNtWTIlFHzvu-16">
          <mxGeometry relative="1" as="geometry" />
        </mxCell>
        <mxCell id="v0zKnN7ERNtWTIlFHzvu-31" style="rounded=0;orthogonalLoop=1;jettySize=auto;html=1;exitX=0.5;exitY=0.5;exitDx=0;exitDy=0;exitPerimeter=0;entryX=1;entryY=0.5;entryDx=0;entryDy=0;" edge="1" parent="1" source="v0zKnN7ERNtWTIlFHzvu-21" target="v0zKnN7ERNtWTIlFHzvu-17">
          <mxGeometry relative="1" as="geometry" />
        </mxCell>
        <mxCell id="v0zKnN7ERNtWTIlFHzvu-32" style="rounded=0;orthogonalLoop=1;jettySize=auto;html=1;exitX=0.5;exitY=0.5;exitDx=0;exitDy=0;exitPerimeter=0;entryX=1;entryY=0.5;entryDx=0;entryDy=0;" edge="1" parent="1" source="v0zKnN7ERNtWTIlFHzvu-21" target="v0zKnN7ERNtWTIlFHzvu-14">
          <mxGeometry relative="1" as="geometry" />
        </mxCell>
        <mxCell id="v0zKnN7ERNtWTIlFHzvu-21" value="Staff" style="shape=umlActor;verticalLabelPosition=bottom;verticalAlign=top;html=1;outlineConnect=0;" vertex="1" parent="1">
          <mxGeometry x="700" y="740" width="30" height="60" as="geometry" />
        </mxCell>
        <mxCell id="v0zKnN7ERNtWTIlFHzvu-29" style="rounded=0;orthogonalLoop=1;jettySize=auto;html=1;exitX=0.5;exitY=0.5;exitDx=0;exitDy=0;exitPerimeter=0;entryX=0;entryY=0.5;entryDx=0;entryDy=0;" edge="1" parent="1" source="v0zKnN7ERNtWTIlFHzvu-24" target="v0zKnN7ERNtWTIlFHzvu-18">
          <mxGeometry relative="1" as="geometry" />
        </mxCell>
        <mxCell id="v0zKnN7ERNtWTIlFHzvu-24" value="Admin" style="shape=umlActor;verticalLabelPosition=bottom;verticalAlign=top;html=1;outlineConnect=0;" vertex="1" parent="1">
          <mxGeometry x="100" y="970" width="30" height="60" as="geometry" />
        </mxCell>
      </root>
    </mxGraphModel>
  </diagram>
</mxfile>
